:version 1.10
:name ASF
:units
  mass 1
  length 1
  angle deg
:documentation
  ASF file generated by Kaydara
:root
  axis xyz
  order  tx ty tz rx ry rz
  position 0 0 0
  orientation 0 0 0
:bonedata
  begin
    id 1
    name lfemurDummy
    direction 0.61522 -0.761478 0.204097
    length 5.68318
    axis 0 -0 0 xyz
  end
  begin
    id 2
    name lfemur
    direction 0.34202 -0.939693 -5.84747e-008
    length 16.9147
    axis 0 -0 20 xyz
    dof rx ry rz
    limits( -inf , inf )
( -inf , inf )
( -inf , inf )

  end
  begin
    id 3
    name ltibia
    direction 0.34202 -0.939693 1.20839e-009
    length 18.0532
    axis 0 -0 20 xyz
    dof rz ry rx
    limits( -inf , inf )
( -inf , inf )
( -inf , inf )

  end
  begin
    id 4
    name lfoot
    direction 0.0841971 -0.23133 0.969225
    length 5.23822
    axis -90 7.62852e-016 20 xyz
    dof ry rx rz
    limits( -inf , inf )
( -inf , inf )
( -inf , inf )

  end
  begin
    id 5
    name ltoes
    direction 0 0 0
    length 0
    axis 0 0 0 xyz
    dof rz ry rx
    limits( -inf , inf )
( -inf , inf )
( -inf , inf )

  end
  begin
    id 6
    name rfemurDummy
    direction -0.625247 -0.75382 0.202044
    length 5.74091
    axis 0 -0 0 xyz
  end
  begin
    id 7
    name rfemur
    direction -0.34202 -0.939693 -1.47013e-008
    length 16.4922
    axis 0 -0 -20 xyz
    dof rx ry rz
    limits( -inf , inf )
( -inf , inf )
( -inf , inf )

  end
  begin
    id 8
    name rtibia
    direction -0.34202 -0.939693 -7.74345e-010
    length 18.2421
    axis 0 -0 -20 xyz
    dof rz ry rx
    limits( -inf , inf )
( -inf , inf )
( -inf , inf )

  end
  begin
    id 9
    name rfoot
    direction -0.124331 -0.341598 0.931586
    length 5.45787
    axis -90 -7.62852e-016 -20 xyz
    dof ry rx rz
    limits( -inf , inf )
( -inf , inf )
( -inf , inf )

  end
  begin
    id 10
    name rtoes
    direction 0 0 0
    length 0
    axis 0 0 0 xyz
    dof rz ry rx
    limits( -inf , inf )
( -inf , inf )
( -inf , inf )

  end
  begin
    id 11
    name lowerbackDummy
    direction 0 0 0
    length 0
    axis 0 -0 0 xyz
  end
  begin
    id 12
    name lowerback
    direction -0.0218484 0.994884 -0.0986304
    length 4.45607
    axis 0 -0 0 xyz
    dof rx ry rz
    limits( -inf , inf )
( -inf , inf )
( -inf , inf )

  end
  begin
    id 13
    name upperback
    direction -0.00973057 0.999717 -0.0217111
    length 4.47449
    axis 0 -0 0 xyz
    dof rx ry rz
    limits( -inf , inf )
( -inf , inf )
( -inf , inf )

  end
  begin
    id 14
    name thorax
    direction -0.000928171 0.999699 0.0245198
    length 4.50973
    axis 0 -0 0 xyz
    dof rx ry rz
    limits( -inf , inf )
( -inf , inf )
( -inf , inf )

  end
  begin
    id 15
    name rclavicle
    direction -0.9009 0.425937 -0.0834055
    length 7.28587
    axis 0 -0 0 xyz
    dof rx ry rz
    limits( -inf , inf )
( -inf , inf )
( -inf , inf )

  end
  begin
    id 16
    name rhumerus
    direction -1 -2.23604e-007 -1.42637e-007
    length 13.5704
    axis 180 30 90 xyz
    dof rx ry rz
    limits( -inf , inf )
( -inf , inf )
( -inf , inf )

  end
  begin
    id 17
    name rradius
    direction -1 5.68281e-008 -4.4952e-007
    length 8.06782
    axis 180 30 90 xyz
    dof rz ry rx
    limits( -inf , inf )
( -inf , inf )
( -inf , inf )

  end
  begin
    id 18
    name rwrist
    direction -1 1.51393e-007 1.38143e-007
    length 4.03391
    axis -90 -90 0 xyz
    dof rz rx ry
    limits( -inf , inf )
( -inf , inf )
( -inf , inf )

  end
  begin
    id 19
    name rthumb
    direction 0 0 0
    length 0
    axis 0 0 0 xyz
    dof ry rx rz
    limits( -inf , inf )
( -inf , inf )
( -inf , inf )

  end
  begin
    id 20
    name rhand
    direction -1 -3.34077e-007 -5.59631e-007
    length 1.29744
    axis -90 -90 0 xyz
    dof ry rx rz
    limits( -inf , inf )
( -inf , inf )
( -inf , inf )

  end
  begin
    id 21
    name rfingers
    direction 0 0 0
    length 0
    axis 0 0 0 xyz
    dof rz ry rx
    limits( -inf , inf )
( -inf , inf )
( -inf , inf )

  end
  begin
    id 22
    name lclavicle
    direction 0.940017 0.332249 -0.0773232
    length 8.29589
    axis 0 -0 0 xyz
    dof rx ry rz
    limits( -inf , inf )
( -inf , inf )
( -inf , inf )

  end
  begin
    id 23
    name lhumerus
    direction 1 7.41158e-008 -1.44768e-008
    length 12.0042
    axis 180 -30 -90 xyz
    dof rx ry rz
    limits( -inf , inf )
( -inf , inf )
( -inf , inf )

  end
  begin
    id 24
    name lradius
    direction 1 -1.32972e-007 3.10821e-007
    length 8.1902
    axis 180 -30 -90 xyz
    dof rz ry rx
    limits( -inf , inf )
( -inf , inf )
( -inf , inf )

  end
  begin
    id 25
    name lwrist
    direction 1 3.08957e-007 4.01394e-007
    length 4.09509
    axis -90 90 0 xyz
    dof rz rx ry
    limits( -inf , inf )
( -inf , inf )
( -inf , inf )

  end
  begin
    id 26
    name lthumb
    direction 0 0 0
    length 0
    axis 0 0 0 xyz
    dof ry rx rz
    limits( -inf , inf )
( -inf , inf )
( -inf , inf )

  end
  begin
    id 27
    name lhand
    direction 1 -1.64125e-007 -6.99514e-007
    length 1.37229
    axis -90 90 0 xyz
    dof ry rx rz
    limits( -inf , inf )
( -inf , inf )
( -inf , inf )

  end
  begin
    id 28
    name lfingers
    direction 0 0 0
    length 0
    axis 0 0 0 xyz
    dof rz ry rx
    limits( -inf , inf )
( -inf , inf )
( -inf , inf )

  end
  begin
    id 29
    name lowerneck
    direction -0.030798 0.998024 0.0547665
    length 3.93918
    axis 0 -0 0 xyz
    dof rx ry rz
    limits( -inf , inf )
( -inf , inf )
( -inf , inf )

  end
  begin
    id 30
    name upperneck
    direction 0.0531588 0.996611 -0.0627736
    length 3.95491
    axis 0 -0 0 xyz
    dof rx ry rz
    limits( -inf , inf )
( -inf , inf )
( -inf , inf )

  end
  begin
    id 31
    name head
    direction 0 0 0
    length 0
    axis 0 0 0 xyz
    dof rx ry rz
    limits( -inf , inf )
( -inf , inf )
( -inf , inf )

  end
:hierarchy
  begin
    root lfemurDummy rfemurDummy lowerbackDummy
    lfemurDummy lfemur
    lfemur ltibia
    ltibia lfoot
    lfoot ltoes
    rfemurDummy rfemur
    rfemur rtibia
    rtibia rfoot
    rfoot rtoes
    lowerbackDummy lowerback
    lowerback upperback
    upperback thorax
    thorax rclavicle lclavicle lowerneck
    rclavicle rhumerus
    rhumerus rradius
    rradius rwrist
    rwrist rthumb rhand
    rhand rfingers
    lclavicle lhumerus
    lhumerus lradius
    lradius lwrist
    lwrist lthumb lhand
    lhand lfingers
    lowerneck upperneck
    upperneck head
  end

:SAMPLES-PER-SECOND 30
:FULLY-SPECIFIED
:DEGREES
67
root  -8.366599796 37.37111129 8.869199678 18.01702881 -32.66200256 -9.291015625
lowerback  8.448710442 9.127820015 -3.134180069
upperback  3.662810087 11.59560013 -7.855370045
thorax  0.2222940028 5.804860115 -7.370009899
lowerneck  5.151150227 -3.524280071 -10.50319958
upperneck  11.20709991 -6.615230083 18.33289909
head  3.324219942 -3.235100031 7.376669884
lclavicle  0 -9.442270133e-015 7.951389973e-016
lhumerus  -2.432029963 -44.16429901 83.29250336
lradius  1.710737234e-031 -3.089048745e-031 118.9779968
lwrist  -7.062250077e-031 -1.765562519e-031 6.965779781
lhand  -1.496451383e-031 -27.76390076 20.11240005
lfingers  90 7.125020027 -90
lthumb  89.89689403 5.08795885 91.16245106
rclavicle  0 -9.442270133e-015 7.951389973e-016
rhumerus  47.49959946 -6.706150055 -28.52540016
rradius  2.566269569e-031 2.425511191e-031 43.38479996
rwrist  7.062250077e-031 -0 11.09230042
rhand  -7.920061211e-032 -33.2840004 9.303460121
rfingers  -90 -7.125020027 -90
rthumb  -92.93752616 -24.25625642 -97.11982154
rfemur  9.428370476 -5.048180103 34.74689865
rtibia  -0 0 35.47710037
rfoot  -0 4.483530045 -10.82629967
rtoes  5.373923086 19.29304026 -105.8922705
lfemur  -62.44440079 -10.19250011 0.06305430084
ltibia  -0 0 52.94760132
lfoot  -0 1.891690016 -10.63910007
ltoes  -4.250644065 -19.5611806 -102.515957
68
root  -8.389421899 37.3768874 8.922444742 18.08001709 -33.01400757 -9.530029297
lowerback  8.610210419 9.047369957 -2.888880014
upperback  3.665679932 11.49069977 -8.044440269
thorax  0.2167979926 5.760670185 -7.719610214
lowerneck  4.618090153 -3.416510105 -10.17020035
upperneck  11.6960001 -6.477210045 18.14819908
head  3.522969961 -3.120559931 7.253379822
lclavicle  0 -9.442270133e-015 7.951389973e-016
lhumerus  -3.595700026 -43.28910065 83.18389893
lradius  1.77697182e-031 -3.051428385e-031 120.2139969
lwrist  -1.412450015e-030 -1.765562519e-031 7.095449924
lhand  -1.496451383e-031 -27.76390076 20.11240005
lfingers  90 7.125020027 -90
lthumb  89.89689403 5.08795885 91.16245106
rclavicle  0 -9.442270133e-015 7.951389973e-016
rhumerus  46.81370163 -5.771279812 -30.45969963
rradius  2.507098174e-031 2.486624777e-031 44.76509857
rwrist  7.062250077e-031 -3.531125038e-031 17.58799934
rhand  -7.920061211e-032 -33.2840004 9.303460121
rfingers  -90 -7.125020027 -90
rthumb  -92.93752616 -24.25625642 -97.11982154
rfemur  9.46875 -1.893249989 34.90790176
rtibia  -0 0 35.58890152
rfoot  -0 4.429409981 -11.10949993
rtoes  5.373923086 19.29304026 -105.8922705
lfemur  -62.10509872 -9.949810028 -0.1022190005
ltibia  -0 0 53.22019958
lfoot  -0 1.530259967 -9.620420456
ltoes  -4.250644065 -19.5611806 -102.515957
69
root  -8.408110911 37.4140011 8.993866688 18.07397461 -33.76600647 -9.666992188
lowerback  8.756739616 9.041469574 -2.744369984
upperback  3.622659922 11.46930027 -8.383219719
thorax  0.193881005 5.758019924 -8.184140205
lowerneck  4.251329899 -3.275039911 -9.809749603
upperneck  11.97220039 -6.293769836 18.11070061
head  3.627419949 -2.99319005 7.17843008
lclavicle  0 -9.442270133e-015 7.951389973e-016
lhumerus  -4.460209846 -42.44929886 82.71569824
lradius  1.836856146e-031 -3.015759197e-031 121.3450012
lwrist  -7.062250077e-031 -1.765562519e-031 7.080520153
lhand  -1.496451383e-031 -27.76390076 20.11240005
lfingers  90 7.125020027 -90
lthumb  89.89689403 5.08795885 91.16245106
rclavicle  0 -9.442270133e-015 7.951389973e-016
rhumerus  46.0326004 -5.125969887 -33.76890182
rradius  2.42182701e-031 2.569746674e-031 46.69739914
rwrist  3.531125038e-031 -3.531125038e-031 18.60379982
rhand  -7.920061211e-032 -33.2840004 9.303460121
rfingers  -90 -7.125020027 -90
rthumb  -92.93752616 -24.25625642 -97.11982154
rfemur  9.514630318 0.4447439909 34.12360001
rtibia  -0 0 35.97240067
rfoot  -0 4.29460001 -10.33450031
rtoes  5.373923086 19.29304026 -105.8922705
lfemur  -61.61470032 -9.610759735 -0.4031369984
ltibia  -0 0 53.50640106
lfoot  -0 1.152989984 -8.560370445
ltoes  -4.250644065 -19.5611806 -102.515957
70
root  -8.40880026 37.4426654 9.055466539 17.98999023 -34.73500061 -9.809020996
lowerback  8.955989838 9.17168045 -3.125230074
upperback  3.562459946 11.57479954 -8.379599571
thorax  -0.04084030166 5.795380116 -8.030610085
lowerneck  4.510519981 -3.131680012 -9.91835022
upperneck  11.70930004 -6.087709904 18.16629982
head  3.478430033 -2.916300058 7.225490093
lclavicle  0 -9.442270133e-015 7.951389973e-016
lhumerus  -5.497169971 -41.71210098 82.91410065
lradius  1.891498981e-031 -2.981790677e-031 122.3889999
lwrist  0 -1.765562519e-031 6.74492979
lhand  -1.496451383e-031 -27.76390076 20.11240005
lfingers  90 7.125020027 -90
lthumb  89.89689403 5.08795885 91.16245106
rclavicle  0 -9.442270133e-015 7.951389973e-016
rhumerus  44.86610031 -4.112440109 -36.69380188
rradius  2.304145168e-031 2.675772614e-031 49.26779938
rwrist  3.531125038e-031 -3.531125038e-031 16.31340027
rhand  -7.920061211e-032 -33.2840004 9.303460121
rfingers  -90 -7.125020027 -90
rthumb  -92.93752616 -24.25625642 -97.11982154
rfemur  9.564459801 2.696929932 33.12519836
rtibia  -0 0 36.46210098
rfoot  -0 4.381090164 -9.629039764
rtoes  5.373923086 19.29304026 -105.8922705
lfemur  -61.02799988 -9.122440338 -0.7551530004
ltibia  -0 0 53.81719971
lfoot  -0 0.3131679893 -8.052149773
ltoes  -4.250644065 -19.5611806 -102.515957
71
root  -8.393178024 37.46555659 9.115511226 18.02099609 -35.72000122 -10.11401367
lowerback  8.85147953 9.260359764 -3.595969915
upperback  3.593780041 11.65699959 -8.160610199
thorax  -0.08481640369 5.818379879 -7.537270069
lowerneck  4.675030231 -2.956500053 -9.940150261
upperneck  11.52779961 -5.802889824 17.82049942
head  3.348449945 -2.799760103 7.123809814
lclavicle  0 -9.442270133e-015 7.951389973e-016
lhumerus  -6.24503994 -40.81869888 83.22350311
lradius  1.936246484e-031 -2.952929662e-031 123.2529984
lwrist  -1.412450015e-030 -1.765562519e-031 6.49090004
lhand  -1.496451383e-031 -27.76390076 20.11240005
lfingers  90 7.125020027 -90
lthumb  89.89689403 5.08795885 91.16245106
rclavicle  0 -9.442270133e-015 7.951389973e-016
rhumerus  43.5381012 -3.000230074 -39.43799973
rradius  2.160373156e-031 2.793140144e-031 52.27959824
rwrist  0 -7.062250077e-031 12.60350037
rhand  -7.920061211e-032 -33.2840004 9.303460121
rfingers  -90 -7.125020027 -90
rthumb  -92.93752616 -24.25625642 -97.11982154
rfemur  9.384469986 4.396019936 32.0401001
rtibia  -0 0 36.875
rfoot  -0 4.950769901 -7.988349915
rtoes  5.373923086 19.29304026 -105.8922705
lfemur  -60.50439835 -8.608590126 -0.9199060202
ltibia  -0 0 54.13980103
lfoot  8.827824701e-032 -0.09488540143 -7.095190048
ltoes  -4.250644065 -19.5611806 -102.515957
72
root  -8.372200192 37.49622135 9.191067012 18.13800049 -36.61999512 -10.57702637
lowerback  8.391079903 9.275509834 -3.903350115
upperback  3.801059961 11.71109962 -7.875740051
thorax  0.2632510066 5.833909988 -6.976449966
lowerneck  4.593239784 -2.802160025 -9.870160103
upperneck  11.42430019 -5.541100025 17.45540047
head  3.285480022 -2.677419901 6.994520187
lclavicle  0 -9.442270133e-015 7.951389973e-016
lhumerus  -6.362269878 -39.82559967 83.29049683
lradius  1.970746524e-031 -2.930017436e-031 123.9250031
lwrist  -7.062250077e-031 -1.765562519e-031 6.41203022
lhand  -1.496451383e-031 -27.76390076 20.11240005
lfingers  90 7.125020027 -90
lthumb  89.89689403 5.08795885 91.16245106
rclavicle  0 -9.442270133e-015 7.951389973e-016
rhumerus  42.11719894 -2.167409897 -42.28490067
rradius  2.008220605e-031 2.904461058e-031 55.3390007
rwrist  3.531125038e-031 -0 10.36849976
rhand  -7.920061211e-032 -33.2840004 9.303460121
rfingers  -90 -7.125020027 -90
rthumb  -92.93752616 -24.25625642 -97.11982154
rfemur  9.075139999 5.523369789 30.89620018
rtibia  -0 0 37.17179871
rfoot  -4.434392862e-032 5.509630203 -5.116489887
rtoes  5.373923086 19.29304026 -105.8922705
lfemur  -60.00490189 -8.190649986 -0.880490005
ltibia  -0 0 54.46839905
lfoot  4.41404698e-032 -0.4574460089 -5.704070091
ltoes  -4.250644065 -19.5611806 -102.515957
